<?xml version="1.0" standalone="no"?>
<!DOCTYPE svg PUBLIC "-//W3C//DTD SVG 20010904//EN"
 "http://www.w3.org/TR/2001/REC-SVG-20010904/DTD/svg10.dtd">
<svg version="1.0" xmlns="http://www.w3.org/2000/svg"
 width="700.000000pt" height="700.000000pt" viewBox="0 0 700.000000 700.000000"
 preserveAspectRatio="xMidYMid meet">
<metadata>
Created by potrace 1.11, written by Peter Selinger 2001-2013
</metadata>
<g transform="translate(0.000000,700.000000) scale(0.100000,-0.100000)"
fill="#000000" stroke="none">
<path d="M3285 6994 c-305 -30 -421 -48 -631 -99 -476 -117 -944 -348 -1339
-661 -141 -113 -436 -408 -549 -549 -409 -516 -656 -1108 -742 -1780 -25 -196
-25 -614 0 -810 86 -672 333 -1264 742 -1780 113 -141 408 -436 549 -549 516
-409 1108 -656 1780 -742 196 -25 614 -25 810 0 672 86 1264 333 1780 742 141
113 436 408 549 549 409 516 656 1108 742 1780 25 196 25 614 0 810 -86 672
-333 1264 -742 1780 -113 141 -408 436 -549 549 -515 408 -1109 657 -1775 741
-117 15 -536 28 -625 19z m580 -1086 c-3 -7 -84 -305 -180 -663 -97 -357 -178
-658 -181 -668 -5 -16 11 -17 277 -15 l283 3 173 655 c94 360 175 665 178 678
l5 22 335 0 c245 0 335 -3 335 -11 0 -9 -288 -1111 -348 -1331 -4 -17 16 -18
330 -18 184 0 337 -3 341 -6 3 -3 -1 -27 -8 -52 -7 -26 -41 -152 -76 -279
l-62 -233 -339 0 c-313 0 -339 -1 -345 -17 -4 -10 -66 -232 -139 -493 l-131
-475 343 -3 c189 -1 344 -5 344 -9 0 -6 -106 -404 -136 -510 l-14 -53 -347 -2
-346 -3 -181 -677 -181 -678 -338 0 c-318 0 -338 1 -333 18 13 43 356 1331
356 1337 0 3 -125 4 -277 3 l-278 -3 -184 -677 -185 -678 -339 0 c-267 0 -338
3 -334 13 8 21 355 1301 359 1322 3 20 -4 20 -338 25 l-340 5 72 267 c39 147
74 274 77 283 6 13 49 15 349 15 l343 0 130 481 c72 265 131 488 133 495 3 12
-53 14 -343 14 -325 0 -346 1 -341 18 11 36 146 542 146 547 0 3 156 5 348 5
l347 0 164 608 c90 334 173 640 184 680 l19 72 339 0 c266 0 337 -3 334 -12z"/>
<path d="M3345 3978 c-3 -7 -61 -224 -130 -483 -69 -258 -127 -476 -130 -482
-3 -10 55 -13 273 -13 l278 0 135 488 c75 268 134 490 132 495 -2 4 -128 7
-279 7 -211 0 -276 -3 -279 -12z"/>
</g>
</svg>
